<?xml version="1.0" encoding="utf-8"?>
<!-- Generator: Adobe Illustrator 27.5.0, SVG Export Plug-In . SVG Version: 6.00 Build 0)  -->
<svg version="1.1" xmlns="http://www.w3.org/2000/svg" xmlns:xlink="http://www.w3.org/1999/xlink" x="0px" y="0px"
	 viewBox="0 0 500 500" style="enable-background:new 0 0 500 500;" xml:space="preserve">
<g id="BACKGROUND">
	<rect x="-0.033" y="0.363" style="fill:#EFC043;" width="500.044" height="500.044"/>
	<g>
		<g>
			<path style="fill:#CA68A4;" d="M428.647,434.776c-0.243-1.274-0.319-2.632,0.174-3.832c0.493-1.2,1.676-2.188,2.97-2.114
				c1.035,0.059,2.038,0.758,3.036,0.478c1.477-0.416,1.635-2.483,2.724-3.564c1.048-1.04,2.856-0.945,4.093-0.138
				c1.237,0.807,2.007,2.155,2.609,3.504c2.354,5.273,2.784,11.38,1.193,16.932c-0.749,2.612-2.661,1.545-4.659,1.093
				c-2.008-0.454-3.914-1.333-5.596-2.515C431.894,442.303,429.407,438.761,428.647,434.776z"/>
			<path style="fill:#CA68A4;" d="M451.126,428.285c1.106-0.677,2.35-1.228,3.646-1.19c1.296,0.038,2.638,0.796,3.026,2.033
				c0.31,0.989,0.01,2.175,0.625,3.009c0.91,1.235,2.9,0.653,4.296,1.291c1.343,0.614,1.893,2.339,1.574,3.781
				c-0.319,1.442-1.308,2.639-2.357,3.678c-4.103,4.064-9.665,6.623-15.42,7.093c-2.708,0.221-2.385-1.944-2.668-3.973
				c-0.284-2.039-0.135-4.133,0.378-6.124C445.23,433.98,447.666,430.403,451.126,428.285z"/>
			<path style="fill:#CA68A4;" d="M464.95,447.448c1.028,0.791,1.987,1.755,2.416,2.979c0.429,1.224,0.201,2.748-0.816,3.553
				c-0.813,0.643-2.027,0.788-2.586,1.66c-0.828,1.292,0.428,2.942,0.332,4.473c-0.093,1.474-1.507,2.604-2.967,2.822
				c-1.461,0.218-2.932-0.277-4.278-0.885c-5.263-2.377-9.642-6.656-12.141-11.862c-1.176-2.449,0.962-2.923,2.756-3.913
				c1.802-0.995,3.811-1.605,5.853-1.838C457.522,443.98,461.734,444.975,464.95,447.448z"/>
			<path style="fill:#CA68A4;" d="M423.496,443.262c-1.138,0.622-2.235,1.426-2.848,2.569c-0.613,1.143-0.624,2.684,0.256,3.637
				c0.703,0.761,1.881,1.092,2.298,2.04c0.618,1.404-0.878,2.84-1.02,4.368c-0.137,1.471,1.085,2.806,2.495,3.248
				c1.409,0.442,2.939,0.18,4.363-0.212c5.567-1.534,10.556-5.083,13.831-9.84c1.54-2.238-0.498-3.036-2.117-4.292
				c-1.626-1.262-3.517-2.175-5.498-2.722C431.371,440.986,427.056,441.317,423.496,443.262z"/>
			<path style="fill:#CA68A4;" d="M450.046,465.728c-0.491,1.201-1.167,2.38-2.234,3.117c-1.067,0.737-2.597,0.921-3.643,0.153
				c-0.835-0.613-1.296-1.747-2.285-2.055c-1.465-0.457-2.724,1.191-4.226,1.503c-1.446,0.3-2.91-0.765-3.507-2.116
				c-0.596-1.351-0.508-2.901-0.277-4.36c0.901-5.704,3.87-11.059,8.23-14.845c2.051-1.781,3.073,0.155,4.502,1.623
				c1.436,1.475,2.555,3.251,3.32,5.159C451.427,457.648,451.581,461.973,450.046,465.728z"/>
		</g>
		<g>
			<path style="fill:#CA68A4;" d="M429.436,312.368c-0.243-1.274-0.319-2.632,0.174-3.832c0.493-1.2,1.676-2.188,2.971-2.114
				c1.035,0.059,2.038,0.758,3.036,0.477c1.477-0.415,1.635-2.483,2.724-3.564c1.048-1.04,2.856-0.945,4.093-0.138
				c1.237,0.807,2.007,2.155,2.609,3.504c2.354,5.273,2.784,11.38,1.193,16.932c-0.749,2.611-2.66,1.545-4.659,1.093
				c-2.008-0.454-3.914-1.333-5.596-2.515C432.684,319.894,430.197,316.353,429.436,312.368z"/>
			<path style="fill:#CA68A4;" d="M451.915,305.877c1.106-0.677,2.35-1.228,3.646-1.19c1.296,0.038,2.638,0.796,3.026,2.033
				c0.31,0.989,0.01,2.175,0.625,3.009c0.91,1.235,2.9,0.653,4.296,1.291c1.343,0.614,1.893,2.339,1.574,3.781
				c-0.319,1.442-1.308,2.639-2.357,3.678c-4.102,4.064-9.665,6.623-15.42,7.094c-2.708,0.221-2.385-1.944-2.668-3.973
				c-0.284-2.039-0.135-4.133,0.378-6.124C446.019,311.572,448.455,307.995,451.915,305.877z"/>
			<path style="fill:#CA68A4;" d="M465.739,325.04c1.028,0.791,1.987,1.755,2.416,2.979s0.201,2.748-0.816,3.553
				c-0.813,0.643-2.027,0.788-2.586,1.66c-0.828,1.292,0.428,2.942,0.332,4.473c-0.093,1.474-1.507,2.604-2.967,2.822
				c-1.461,0.218-2.932-0.277-4.278-0.885c-5.263-2.377-9.642-6.656-12.141-11.862c-1.176-2.449,0.962-2.923,2.756-3.913
				c1.802-0.995,3.811-1.604,5.853-1.838C458.312,321.572,462.523,322.567,465.739,325.04z"/>
			<path style="fill:#CA68A4;" d="M424.285,320.854c-1.138,0.622-2.235,1.426-2.848,2.569c-0.613,1.143-0.624,2.684,0.256,3.637
				c0.703,0.761,1.881,1.092,2.298,2.04c0.618,1.404-0.878,2.84-1.02,4.368c-0.137,1.471,1.085,2.806,2.495,3.248
				c1.409,0.442,2.94,0.18,4.363-0.212c5.567-1.534,10.556-5.083,13.831-9.84c1.54-2.238-0.498-3.036-2.117-4.292
				c-1.626-1.262-3.517-2.175-5.498-2.722C432.16,318.578,427.845,318.908,424.285,320.854z"/>
			<path style="fill:#CA68A4;" d="M450.836,343.32c-0.491,1.201-1.167,2.38-2.234,3.117c-1.067,0.737-2.598,0.921-3.643,0.153
				c-0.835-0.613-1.296-1.747-2.285-2.055c-1.465-0.457-2.724,1.191-4.226,1.503c-1.446,0.3-2.91-0.765-3.507-2.116
				c-0.596-1.351-0.508-2.901-0.277-4.36c0.901-5.704,3.87-11.059,8.23-14.845c2.051-1.781,3.073,0.155,4.502,1.623
				c1.436,1.475,2.555,3.251,3.32,5.159C452.216,335.24,452.37,339.565,450.836,343.32z"/>
		</g>
		<g>
			<path style="fill:#CA68A4;" d="M36.205,35.445c-0.243-1.274-0.319-2.632,0.174-3.831c0.493-1.2,1.676-2.188,2.971-2.114
				c1.035,0.059,2.038,0.758,3.036,0.478c1.477-0.416,1.635-2.483,2.724-3.564c1.049-1.04,2.856-0.945,4.093-0.138
				c1.236,0.808,2.007,2.155,2.609,3.504c2.354,5.273,2.784,11.38,1.193,16.932c-0.749,2.612-2.661,1.545-4.659,1.093
				c-2.008-0.454-3.914-1.333-5.596-2.515C39.453,42.971,36.966,39.43,36.205,35.445z"/>
			<path style="fill:#CA68A4;" d="M58.684,28.954c1.106-0.677,2.35-1.228,3.646-1.19c1.296,0.038,2.638,0.796,3.026,2.033
				c0.31,0.989,0.01,2.175,0.625,3.009c0.91,1.235,2.9,0.653,4.296,1.291c1.343,0.614,1.893,2.339,1.574,3.781
				c-0.319,1.442-1.308,2.639-2.357,3.678c-4.103,4.064-9.665,6.623-15.42,7.093c-2.708,0.221-2.385-1.944-2.668-3.973
				c-0.284-2.039-0.135-4.133,0.377-6.123C52.788,34.649,55.224,31.072,58.684,28.954z"/>
			<path style="fill:#CA68A4;" d="M72.509,48.117c1.028,0.791,1.987,1.755,2.416,2.979c0.429,1.224,0.201,2.748-0.816,3.553
				c-0.812,0.643-2.027,0.788-2.586,1.66c-0.828,1.292,0.428,2.942,0.332,4.473c-0.093,1.474-1.507,2.604-2.967,2.822
				c-1.461,0.218-2.932-0.277-4.278-0.885c-5.263-2.377-9.642-6.656-12.141-11.862c-1.175-2.449,0.962-2.923,2.756-3.913
				c1.802-0.995,3.811-1.605,5.853-1.838C65.081,44.649,69.293,45.644,72.509,48.117z"/>
			<path style="fill:#CA68A4;" d="M31.055,43.931c-1.138,0.622-2.235,1.426-2.848,2.569c-0.613,1.143-0.624,2.684,0.256,3.637
				c0.703,0.761,1.881,1.092,2.298,2.041c0.618,1.404-0.878,2.84-1.02,4.368c-0.137,1.471,1.086,2.806,2.495,3.248
				c1.409,0.442,2.939,0.18,4.363-0.212c5.567-1.534,10.556-5.083,13.831-9.84c1.54-2.238-0.498-3.036-2.117-4.292
				c-1.626-1.262-3.517-2.175-5.498-2.722C38.93,41.654,34.615,41.985,31.055,43.931z"/>
			<path style="fill:#CA68A4;" d="M57.605,66.397c-0.491,1.2-1.167,2.38-2.234,3.117c-1.067,0.737-2.597,0.921-3.643,0.153
				c-0.835-0.613-1.295-1.747-2.285-2.055c-1.465-0.457-2.724,1.191-4.226,1.503c-1.446,0.3-2.91-0.765-3.507-2.116
				c-0.597-1.351-0.508-2.901-0.278-4.36c0.901-5.704,3.87-11.058,8.23-14.845c2.051-1.781,3.073,0.155,4.502,1.623
				c1.436,1.475,2.555,3.251,3.32,5.159C58.986,58.317,59.14,62.642,57.605,66.397z"/>
		</g>
		<g>
			<path style="fill:#CA68A4;" d="M427.854,43.357c-0.243-1.274-0.319-2.632,0.174-3.832c0.493-1.2,1.676-2.188,2.971-2.114
				c1.035,0.059,2.038,0.758,3.036,0.478c1.477-0.416,1.635-2.483,2.724-3.564c1.048-1.04,2.856-0.945,4.093-0.138
				c1.237,0.807,2.007,2.155,2.609,3.504c2.354,5.273,2.784,11.38,1.193,16.932c-0.749,2.611-2.661,1.545-4.659,1.093
				c-2.008-0.454-3.914-1.333-5.596-2.515C431.101,50.883,428.614,47.342,427.854,43.357z"/>
			<path style="fill:#CA68A4;" d="M450.332,36.866c1.106-0.677,2.35-1.228,3.646-1.19c1.296,0.038,2.638,0.796,3.026,2.033
				c0.31,0.989,0.01,2.175,0.625,3.009c0.91,1.235,2.9,0.653,4.296,1.291c1.343,0.614,1.893,2.339,1.574,3.781
				c-0.319,1.442-1.308,2.639-2.357,3.678c-4.103,4.064-9.665,6.623-15.42,7.094c-2.708,0.221-2.385-1.944-2.668-3.973
				c-0.284-2.039-0.135-4.133,0.378-6.124C444.437,42.561,446.872,38.984,450.332,36.866z"/>
			<path style="fill:#CA68A4;" d="M464.157,56.029c1.028,0.791,1.987,1.755,2.416,2.979s0.201,2.748-0.816,3.553
				c-0.813,0.643-2.027,0.788-2.586,1.66c-0.828,1.292,0.428,2.942,0.332,4.473c-0.093,1.474-1.507,2.604-2.967,2.822
				c-1.461,0.218-2.932-0.277-4.278-0.885c-5.263-2.377-9.642-6.656-12.141-11.862c-1.176-2.449,0.962-2.923,2.756-3.913
				c1.802-0.995,3.811-1.604,5.853-1.838C456.729,52.561,460.941,53.556,464.157,56.029z"/>
			<path style="fill:#CA68A4;" d="M422.703,51.843c-1.138,0.622-2.235,1.426-2.848,2.569c-0.613,1.143-0.624,2.684,0.256,3.637
				c0.703,0.761,1.881,1.092,2.298,2.041c0.618,1.404-0.878,2.84-1.02,4.368c-0.137,1.471,1.085,2.806,2.495,3.248
				c1.409,0.442,2.94,0.18,4.363-0.212c5.567-1.534,10.556-5.083,13.831-9.84c1.54-2.238-0.498-3.036-2.117-4.292
				c-1.626-1.261-3.517-2.175-5.498-2.722C430.578,49.567,426.263,49.897,422.703,51.843z"/>
			<path style="fill:#CA68A4;" d="M449.253,74.309c-0.491,1.201-1.167,2.38-2.234,3.117c-1.067,0.737-2.597,0.921-3.643,0.153
				c-0.835-0.614-1.296-1.747-2.285-2.055c-1.465-0.457-2.724,1.191-4.226,1.502c-1.446,0.3-2.91-0.765-3.507-2.116
				c-0.596-1.351-0.508-2.901-0.277-4.36c0.901-5.704,3.87-11.059,8.23-14.845c2.051-1.781,3.073,0.155,4.502,1.623
				c1.436,1.475,2.555,3.251,3.32,5.159C450.634,66.229,450.788,70.554,449.253,74.309z"/>
		</g>
		<g>
			<path style="fill:#CA68A4;" d="M52.665,154.505c-0.243-1.274-0.319-2.632,0.174-3.831c0.493-1.2,1.676-2.188,2.971-2.114
				c1.035,0.059,2.038,0.758,3.036,0.478c1.477-0.416,1.635-2.483,2.724-3.564c1.049-1.04,2.857-0.945,4.093-0.138
				c1.237,0.807,2.007,2.155,2.609,3.504c2.354,5.273,2.784,11.38,1.193,16.932c-0.749,2.612-2.661,1.545-4.659,1.093
				c-2.008-0.454-3.914-1.333-5.596-2.515C55.913,162.032,53.426,158.49,52.665,154.505z"/>
			<path style="fill:#CA68A4;" d="M75.144,148.014c1.106-0.677,2.35-1.228,3.646-1.19c1.296,0.037,2.638,0.796,3.026,2.033
				c0.31,0.989,0.01,2.175,0.625,3.009c0.91,1.235,2.9,0.653,4.296,1.291c1.343,0.614,1.893,2.339,1.574,3.781
				c-0.319,1.442-1.308,2.639-2.357,3.678c-4.103,4.064-9.665,6.623-15.42,7.093c-2.708,0.221-2.385-1.944-2.668-3.973
				c-0.284-2.039-0.135-4.133,0.378-6.123C69.248,153.71,71.684,150.133,75.144,148.014z"/>
			<path style="fill:#CA68A4;" d="M88.968,167.178c1.028,0.79,1.987,1.755,2.416,2.979c0.429,1.224,0.201,2.748-0.816,3.554
				c-0.812,0.643-2.027,0.788-2.586,1.66c-0.828,1.292,0.428,2.942,0.332,4.473c-0.093,1.474-1.507,2.604-2.968,2.822
				c-1.461,0.218-2.932-0.277-4.278-0.885c-5.263-2.377-9.642-6.656-12.141-11.862c-1.176-2.449,0.962-2.923,2.756-3.913
				c1.802-0.995,3.811-1.605,5.853-1.838C81.541,163.71,85.753,164.704,88.968,167.178z"/>
			<path style="fill:#CA68A4;" d="M47.515,162.992c-1.138,0.622-2.235,1.426-2.848,2.569c-0.613,1.143-0.624,2.684,0.256,3.637
				c0.703,0.761,1.881,1.092,2.298,2.04c0.618,1.404-0.878,2.84-1.02,4.368c-0.137,1.471,1.085,2.806,2.495,3.248
				c1.409,0.441,2.939,0.18,4.363-0.212c5.567-1.534,10.556-5.083,13.831-9.84c1.54-2.238-0.498-3.036-2.117-4.292
				c-1.626-1.262-3.517-2.175-5.498-2.722C55.389,160.715,51.075,161.046,47.515,162.992z"/>
			<path style="fill:#CA68A4;" d="M74.065,185.458c-0.491,1.2-1.167,2.38-2.234,3.117c-1.067,0.737-2.597,0.921-3.643,0.153
				c-0.835-0.613-1.296-1.747-2.285-2.055c-1.465-0.457-2.724,1.19-4.226,1.502c-1.446,0.3-2.91-0.765-3.507-2.116
				c-0.597-1.351-0.508-2.901-0.278-4.36c0.901-5.704,3.87-11.059,8.23-14.845c2.051-1.781,3.073,0.155,4.502,1.623
				c1.436,1.475,2.555,3.251,3.32,5.159C75.445,177.378,75.6,181.702,74.065,185.458z"/>
		</g>
		<g>
			<path style="fill:#CA68A4;" d="M82.095,329.774c-0.243-1.274-0.319-2.632,0.174-3.831c0.493-1.2,1.676-2.188,2.97-2.114
				c1.035,0.059,2.038,0.758,3.036,0.477c1.477-0.415,1.635-2.483,2.724-3.564c1.049-1.04,2.856-0.945,4.093-0.138
				c1.237,0.807,2.007,2.155,2.609,3.504c2.354,5.273,2.784,11.38,1.193,16.932c-0.749,2.612-2.661,1.545-4.659,1.093
				c-2.008-0.454-3.914-1.333-5.596-2.515C85.343,337.301,82.856,333.759,82.095,329.774z"/>
			<path style="fill:#CA68A4;" d="M104.574,323.283c1.106-0.677,2.35-1.228,3.646-1.19c1.296,0.038,2.638,0.796,3.026,2.033
				c0.31,0.989,0.01,2.175,0.625,3.009c0.91,1.235,2.9,0.653,4.296,1.291c1.343,0.614,1.893,2.339,1.574,3.781
				c-0.319,1.442-1.308,2.639-2.357,3.678c-4.103,4.064-9.665,6.623-15.42,7.094c-2.708,0.221-2.385-1.944-2.668-3.973
				c-0.284-2.039-0.135-4.133,0.378-6.124C98.678,328.978,101.114,325.401,104.574,323.283z"/>
			<path style="fill:#CA68A4;" d="M118.399,342.446c1.028,0.791,1.987,1.755,2.416,2.979c0.429,1.224,0.201,2.748-0.816,3.553
				c-0.812,0.643-2.027,0.788-2.586,1.66c-0.828,1.292,0.428,2.942,0.332,4.473c-0.093,1.474-1.507,2.604-2.967,2.822
				c-1.461,0.218-2.932-0.277-4.278-0.885c-5.263-2.377-9.642-6.656-12.141-11.862c-1.175-2.449,0.962-2.923,2.756-3.913
				c1.802-0.995,3.811-1.604,5.853-1.838C110.971,338.978,115.183,339.973,118.399,342.446z"/>
			<path style="fill:#CA68A4;" d="M76.945,338.26c-1.138,0.622-2.235,1.426-2.848,2.569c-0.613,1.143-0.624,2.684,0.256,3.637
				c0.703,0.761,1.881,1.092,2.298,2.04c0.618,1.404-0.878,2.84-1.02,4.368c-0.137,1.47,1.086,2.806,2.495,3.248
				c1.409,0.442,2.939,0.18,4.363-0.212c5.567-1.534,10.556-5.083,13.831-9.84c1.54-2.238-0.498-3.036-2.117-4.292
				c-1.626-1.262-3.517-2.175-5.498-2.722C84.82,335.984,80.505,336.315,76.945,338.26z"/>
			<path style="fill:#CA68A4;" d="M103.495,360.727c-0.491,1.2-1.167,2.38-2.234,3.117s-2.597,0.92-3.643,0.153
				c-0.835-0.613-1.295-1.747-2.285-2.055c-1.465-0.457-2.724,1.191-4.226,1.503c-1.446,0.3-2.91-0.765-3.507-2.116
				c-0.596-1.351-0.508-2.901-0.277-4.36c0.901-5.704,3.87-11.059,8.23-14.845c2.051-1.781,3.073,0.155,4.502,1.624
				c1.436,1.475,2.555,3.251,3.32,5.159C104.876,352.647,105.03,356.971,103.495,360.727z"/>
		</g>
		<g>
			<path style="fill:#CA68A4;" d="M115.047,451.722c-0.136-0.713-0.178-1.473,0.097-2.144c0.276-0.671,0.938-1.224,1.662-1.183
				c0.579,0.033,1.141,0.424,1.699,0.267c0.826-0.232,0.915-1.39,1.524-1.994c0.587-0.582,1.599-0.529,2.291-0.077
				c0.692,0.452,1.123,1.206,1.46,1.961c1.317,2.951,1.558,6.369,0.668,9.475c-0.419,1.462-1.489,0.865-2.608,0.612
				c-1.124-0.254-2.191-0.746-3.132-1.407C116.864,455.934,115.473,453.952,115.047,451.722z"/>
			<path style="fill:#CA68A4;" d="M127.627,448.089c0.619-0.379,1.315-0.687,2.04-0.666c0.726,0.021,1.477,0.445,1.694,1.138
				c0.174,0.553,0.006,1.217,0.35,1.684c0.509,0.691,1.623,0.365,2.404,0.722c0.752,0.343,1.059,1.309,0.881,2.116
				s-0.732,1.477-1.319,2.058c-2.296,2.274-5.409,3.706-8.63,3.97c-1.515,0.124-1.335-1.088-1.493-2.224
				c-0.159-1.141-0.076-2.313,0.211-3.427C124.328,451.276,125.691,449.275,127.627,448.089z"/>
			<path style="fill:#CA68A4;" d="M135.364,458.813c0.575,0.442,1.112,0.982,1.352,1.667s0.113,1.538-0.456,1.989
				c-0.455,0.36-1.134,0.441-1.447,0.929c-0.463,0.723,0.24,1.647,0.186,2.503c-0.052,0.825-0.843,1.457-1.661,1.58
				c-0.817,0.122-1.641-0.155-2.394-0.495c-2.945-1.33-5.396-3.725-6.794-6.638c-0.658-1.371,0.538-1.636,1.542-2.19
				c1.008-0.557,2.133-0.898,3.276-1.029C131.207,456.873,133.564,457.429,135.364,458.813z"/>
			<path style="fill:#CA68A4;" d="M112.165,456.471c-0.637,0.348-1.251,0.798-1.594,1.438c-0.343,0.64-0.349,1.502,0.143,2.035
				c0.394,0.426,1.053,0.611,1.286,1.142c0.346,0.786-0.492,1.59-0.571,2.445c-0.076,0.823,0.607,1.57,1.396,1.818
				c0.789,0.247,1.645,0.101,2.442-0.119c3.116-0.858,5.908-2.844,7.74-5.507c0.862-1.252-0.279-1.699-1.185-2.402
				c-0.91-0.706-1.968-1.217-3.077-1.523C116.572,455.197,114.157,455.382,112.165,456.471z"/>
			<path style="fill:#CA68A4;" d="M127.023,469.044c-0.275,0.672-0.653,1.332-1.25,1.745c-0.597,0.412-1.454,0.515-2.039,0.085
				c-0.467-0.343-0.725-0.978-1.279-1.15c-0.82-0.256-1.525,0.666-2.365,0.841c-0.809,0.168-1.629-0.428-1.962-1.184
				c-0.334-0.756-0.284-1.624-0.155-2.44c0.504-3.192,2.166-6.189,4.606-8.308c1.148-0.997,1.72,0.087,2.52,0.909
				c0.803,0.826,1.43,1.819,1.858,2.887C127.796,464.522,127.882,466.942,127.023,469.044z"/>
		</g>
		<g>
			<path style="fill:#CA68A4;" d="M182.3,40.293c-0.136-0.713-0.179-1.473,0.097-2.144c0.276-0.671,0.938-1.224,1.662-1.183
				c0.579,0.033,1.141,0.424,1.699,0.267c0.827-0.233,0.915-1.39,1.525-1.994c0.587-0.582,1.598-0.529,2.291-0.077
				c0.692,0.452,1.123,1.206,1.46,1.961c1.317,2.951,1.558,6.369,0.668,9.476c-0.419,1.462-1.489,0.865-2.608,0.612
				c-1.124-0.254-2.191-0.746-3.132-1.408C184.117,44.505,182.725,42.523,182.3,40.293z"/>
			<path style="fill:#CA68A4;" d="M194.88,36.66c0.619-0.379,1.315-0.687,2.04-0.666c0.725,0.021,1.477,0.445,1.694,1.138
				c0.174,0.553,0.006,1.217,0.35,1.684c0.509,0.691,1.623,0.365,2.404,0.722c0.752,0.344,1.059,1.309,0.881,2.116
				c-0.178,0.807-0.732,1.477-1.319,2.058c-2.296,2.274-5.409,3.706-8.63,3.97c-1.515,0.124-1.335-1.088-1.493-2.224
				c-0.159-1.141-0.076-2.313,0.211-3.427C191.58,39.848,192.943,37.846,194.88,36.66z"/>
			<path style="fill:#CA68A4;" d="M202.616,47.385c0.575,0.442,1.112,0.982,1.352,1.667c0.24,0.685,0.113,1.538-0.456,1.989
				c-0.455,0.36-1.135,0.441-1.447,0.929c-0.463,0.723,0.24,1.646,0.186,2.503c-0.052,0.825-0.843,1.458-1.661,1.58
				c-0.817,0.122-1.641-0.155-2.394-0.495c-2.945-1.33-5.396-3.725-6.794-6.638c-0.658-1.371,0.538-1.636,1.542-2.19
				c1.008-0.557,2.133-0.898,3.276-1.029C198.46,45.444,200.817,46.001,202.616,47.385z"/>
			<path style="fill:#CA68A4;" d="M179.417,45.042c-0.637,0.348-1.251,0.798-1.594,1.438c-0.343,0.64-0.349,1.502,0.143,2.035
				c0.394,0.426,1.053,0.611,1.286,1.142c0.346,0.786-0.492,1.59-0.571,2.444c-0.077,0.823,0.607,1.57,1.396,1.818
				c0.789,0.247,1.645,0.101,2.442-0.119c3.116-0.858,5.908-2.845,7.74-5.507c0.862-1.252-0.279-1.699-1.185-2.402
				c-0.91-0.706-1.968-1.217-3.077-1.523C183.824,43.768,181.41,43.953,179.417,45.042z"/>
			<path style="fill:#CA68A4;" d="M194.276,57.615c-0.275,0.672-0.653,1.332-1.25,1.745c-0.597,0.413-1.454,0.515-2.039,0.085
				c-0.467-0.343-0.725-0.977-1.279-1.15c-0.82-0.256-1.525,0.666-2.365,0.841c-0.809,0.168-1.629-0.428-1.962-1.184
				s-0.284-1.623-0.155-2.44c0.504-3.192,2.166-6.189,4.606-8.308c1.148-0.997,1.72,0.087,2.52,0.909
				c0.803,0.826,1.43,1.819,1.858,2.887C195.048,53.093,195.135,55.514,194.276,57.615z"/>
		</g>
		<g>
			<path style="fill:#CA68A4;" d="M444.466,187.18c-0.136-0.713-0.178-1.473,0.097-2.144c0.276-0.671,0.938-1.224,1.662-1.183
				c0.579,0.033,1.141,0.424,1.699,0.267c0.826-0.233,0.915-1.39,1.524-1.994c0.587-0.582,1.599-0.529,2.291-0.077
				c0.692,0.452,1.123,1.206,1.46,1.961c1.317,2.951,1.558,6.369,0.668,9.475c-0.419,1.462-1.489,0.865-2.607,0.612
				c-1.124-0.254-2.191-0.746-3.132-1.407C446.283,191.392,444.891,189.41,444.466,187.18z"/>
			<path style="fill:#CA68A4;" d="M457.046,183.548c0.619-0.379,1.315-0.687,2.04-0.666c0.725,0.021,1.477,0.445,1.694,1.138
				c0.173,0.553,0.006,1.217,0.35,1.684c0.509,0.691,1.623,0.365,2.404,0.722c0.752,0.344,1.059,1.309,0.881,2.116
				c-0.178,0.807-0.732,1.477-1.319,2.058c-2.296,2.274-5.409,3.706-8.63,3.97c-1.515,0.124-1.335-1.088-1.493-2.224
				c-0.159-1.141-0.076-2.313,0.211-3.427C453.746,186.735,455.109,184.733,457.046,183.548z"/>
			<path style="fill:#CA68A4;" d="M464.782,194.272c0.575,0.442,1.112,0.982,1.352,1.667c0.24,0.685,0.112,1.538-0.457,1.989
				c-0.455,0.36-1.134,0.441-1.447,0.929c-0.463,0.723,0.24,1.646,0.186,2.503c-0.052,0.825-0.843,1.458-1.661,1.58
				c-0.817,0.122-1.641-0.155-2.394-0.495c-2.945-1.33-5.396-3.725-6.794-6.638c-0.658-1.371,0.538-1.636,1.542-2.19
				c1.008-0.557,2.133-0.898,3.276-1.029C460.625,192.331,462.982,192.888,464.782,194.272z"/>
			<path style="fill:#CA68A4;" d="M441.583,191.929c-0.637,0.348-1.251,0.798-1.594,1.438c-0.343,0.64-0.349,1.502,0.143,2.035
				c0.393,0.426,1.053,0.611,1.286,1.142c0.346,0.786-0.492,1.59-0.571,2.444c-0.076,0.823,0.607,1.57,1.396,1.818
				s1.645,0.101,2.442-0.119c3.116-0.858,5.908-2.845,7.74-5.507c0.862-1.252-0.279-1.699-1.185-2.402
				c-0.91-0.706-1.968-1.217-3.077-1.523C445.99,190.656,443.576,190.841,441.583,191.929z"/>
			<path style="fill:#CA68A4;" d="M456.442,204.502c-0.275,0.672-0.653,1.332-1.25,1.745c-0.597,0.412-1.454,0.515-2.039,0.085
				c-0.467-0.343-0.725-0.978-1.279-1.15c-0.82-0.255-1.525,0.666-2.365,0.841c-0.809,0.168-1.629-0.428-1.962-1.184
				c-0.334-0.756-0.284-1.623-0.155-2.44c0.504-3.192,2.166-6.189,4.606-8.308c1.148-0.997,1.72,0.087,2.52,0.908
				c0.803,0.826,1.43,1.82,1.858,2.887C457.214,199.98,457.3,202.401,456.442,204.502z"/>
		</g>
		<g>
			<path style="fill:#CA68A4;" d="M319.416,462.01c-0.136-0.713-0.179-1.473,0.097-2.144c0.276-0.671,0.938-1.224,1.662-1.183
				c0.579,0.033,1.141,0.424,1.699,0.267c0.827-0.233,0.915-1.39,1.525-1.994c0.587-0.582,1.599-0.529,2.291-0.077
				c0.692,0.452,1.123,1.206,1.46,1.961c1.317,2.951,1.558,6.369,0.668,9.476c-0.419,1.461-1.489,0.865-2.608,0.612
				c-1.124-0.254-2.19-0.746-3.132-1.408C321.233,466.222,319.842,464.24,319.416,462.01z"/>
			<path style="fill:#CA68A4;" d="M331.996,458.378c0.619-0.379,1.315-0.687,2.04-0.666c0.725,0.021,1.477,0.445,1.694,1.138
				c0.173,0.553,0.006,1.217,0.35,1.684c0.509,0.691,1.623,0.365,2.404,0.722c0.752,0.344,1.059,1.309,0.881,2.116
				s-0.732,1.477-1.319,2.058c-2.296,2.274-5.409,3.706-8.63,3.97c-1.515,0.124-1.335-1.088-1.493-2.224
				c-0.159-1.141-0.076-2.313,0.211-3.427C328.697,461.565,330.06,459.563,331.996,458.378z"/>
			<path style="fill:#CA68A4;" d="M339.733,469.102c0.575,0.442,1.112,0.982,1.352,1.667s0.112,1.538-0.457,1.989
				c-0.455,0.36-1.134,0.441-1.447,0.929c-0.463,0.723,0.24,1.647,0.186,2.503c-0.052,0.825-0.843,1.458-1.661,1.58
				c-0.817,0.122-1.641-0.155-2.394-0.495c-2.945-1.33-5.396-3.725-6.794-6.638c-0.658-1.371,0.538-1.636,1.542-2.19
				c1.009-0.557,2.133-0.898,3.276-1.029C335.576,467.161,337.933,467.718,339.733,469.102z"/>
			<path style="fill:#CA68A4;" d="M316.534,466.759c-0.637,0.348-1.251,0.798-1.594,1.438c-0.343,0.64-0.349,1.502,0.143,2.035
				c0.393,0.426,1.053,0.611,1.286,1.142c0.346,0.786-0.492,1.59-0.571,2.444c-0.076,0.823,0.607,1.57,1.396,1.818
				c0.789,0.247,1.645,0.101,2.442-0.119c3.116-0.858,5.908-2.845,7.74-5.507c0.862-1.252-0.279-1.699-1.185-2.402
				c-0.91-0.706-1.968-1.217-3.077-1.523C320.941,465.485,318.526,465.671,316.534,466.759z"/>
			<path style="fill:#CA68A4;" d="M331.392,479.332c-0.275,0.672-0.653,1.332-1.251,1.745c-0.597,0.412-1.454,0.515-2.038,0.085
				c-0.467-0.343-0.725-0.978-1.279-1.15c-0.82-0.255-1.525,0.666-2.365,0.841c-0.809,0.168-1.629-0.428-1.962-1.184
				c-0.334-0.756-0.284-1.624-0.155-2.44c0.504-3.192,2.166-6.189,4.606-8.308c1.148-0.997,1.72,0.087,2.52,0.909
				c0.803,0.825,1.43,1.819,1.858,2.887C332.165,474.81,332.251,477.23,331.392,479.332z"/>
		</g>
		<g>
			<path style="fill:#CA68A4;" d="M362.971,89.07c-0.136-0.713-0.178-1.473,0.097-2.144c0.276-0.671,0.938-1.224,1.663-1.183
				c0.579,0.033,1.141,0.424,1.699,0.267c0.826-0.233,0.915-1.39,1.524-1.994c0.587-0.582,1.599-0.529,2.291-0.077
				c0.692,0.452,1.123,1.206,1.46,1.961c1.317,2.951,1.558,6.369,0.668,9.476c-0.419,1.462-1.489,0.865-2.608,0.612
				c-1.124-0.254-2.191-0.746-3.132-1.407C364.789,93.283,363.397,91.3,362.971,89.07z"/>
			<path style="fill:#CA68A4;" d="M375.551,85.438c0.619-0.379,1.315-0.687,2.04-0.666c0.725,0.021,1.477,0.445,1.694,1.138
				c0.174,0.553,0.006,1.217,0.35,1.684c0.509,0.691,1.623,0.365,2.404,0.722c0.752,0.344,1.059,1.309,0.881,2.116
				c-0.179,0.807-0.732,1.477-1.319,2.058c-2.296,2.274-5.409,3.706-8.63,3.97c-1.515,0.124-1.335-1.088-1.493-2.224
				c-0.159-1.141-0.076-2.313,0.211-3.427C372.252,88.625,373.615,86.623,375.551,85.438z"/>
			<path style="fill:#CA68A4;" d="M383.288,96.162c0.575,0.442,1.112,0.982,1.352,1.667s0.113,1.538-0.457,1.989
				c-0.455,0.36-1.134,0.441-1.447,0.929c-0.463,0.723,0.24,1.646,0.186,2.503c-0.052,0.825-0.843,1.458-1.661,1.58
				c-0.817,0.122-1.641-0.155-2.394-0.495c-2.945-1.33-5.396-3.725-6.794-6.638c-0.658-1.371,0.538-1.636,1.542-2.19
				c1.008-0.557,2.133-0.898,3.276-1.029C379.131,94.221,381.488,94.778,383.288,96.162z"/>
			<path style="fill:#CA68A4;" d="M360.089,93.82c-0.637,0.348-1.251,0.798-1.594,1.438c-0.343,0.64-0.349,1.502,0.143,2.035
				c0.393,0.426,1.053,0.611,1.286,1.142c0.346,0.786-0.491,1.59-0.571,2.444c-0.076,0.823,0.607,1.571,1.396,1.818
				c0.789,0.247,1.645,0.101,2.442-0.119c3.116-0.858,5.908-2.845,7.74-5.507c0.862-1.252-0.278-1.699-1.185-2.402
				c-0.91-0.706-1.968-1.217-3.077-1.523C364.496,92.546,362.081,92.731,360.089,93.82z"/>
			<path style="fill:#CA68A4;" d="M374.947,106.392c-0.275,0.672-0.653,1.332-1.25,1.745c-0.597,0.412-1.454,0.515-2.039,0.085
				c-0.467-0.343-0.725-0.977-1.279-1.15c-0.82-0.255-1.525,0.666-2.365,0.841c-0.809,0.168-1.629-0.428-1.962-1.184
				c-0.334-0.756-0.284-1.623-0.155-2.44c0.504-3.192,2.166-6.189,4.606-8.308c1.148-0.997,1.72,0.087,2.52,0.909
				c0.803,0.826,1.43,1.82,1.858,2.887C375.72,101.87,375.806,104.291,374.947,106.392z"/>
		</g>
	</g>
</g>
<g id="OBJECTS">
	<g>
		<g>
			<path style="fill:#914B76;stroke:#4A1000;stroke-miterlimit:10;" d="M334.054,278.725c12.971,0.477,26.078,0.29,38.751-2.518
				c12.673-2.808,24.976-8.395,34.188-17.54c9.212-9.145,15.031-22.105,13.949-35.04c-1.083-12.935-9.778-25.365-22.156-29.274
				c-6.322-1.996-13.192-1.801-19.462-3.954c-5.093-1.749-9.551-4.968-14.509-7.068c-9.652-4.088-20.584-3.71-30.979-2.365
				c-28.586,3.698-57.394,15.098-75.707,37.357c-3.603,4.379-6.862,9.409-7.313,15.062c-0.461,5.786,2.141,11.481,5.877,15.924
				c8.556,10.174,18.417,18.013,31.055,22.253C302.631,276.557,318.443,278.151,334.054,278.725z"/>
			<path style="fill:#CA68A4;" d="M344.677,271.667c-3.052,0-6.319-0.065-9.986-0.2c-12.796-0.471-29.503-1.688-45.244-6.969
				c-11.041-3.706-20.373-10.411-29.367-21.105c-2.065-2.456-5.461-7.436-5.002-13.194c0.312-3.911,2.306-7.908,6.465-12.962
				c15.752-19.146,41.776-31.936,73.276-36.012c4.717-0.61,8.596-0.894,12.207-0.894c6.561,0,12.061,0.978,16.815,2.992
				c1.98,0.838,3.897,1.884,5.929,2.992c2.773,1.512,5.642,3.076,8.826,4.17c3.584,1.231,7.227,1.75,10.751,2.252
				c3.11,0.443,6.047,0.862,8.8,1.731c10.495,3.314,18.526,14.001,19.53,25.989c0.933,11.153-3.869,23.133-12.847,32.046
				c-7.946,7.888-19.131,13.605-32.343,16.533c-8.103,1.796-16.941,2.631-27.809,2.631
				C344.678,271.667,344.678,271.667,344.677,271.667z"/>
			<g>
				<path style="fill:#D83816;stroke:#4A1000;stroke-linecap:round;stroke-linejoin:round;stroke-miterlimit:10;" d="
					M391.605,208.697c1.387-0.732,2.77-1.46,4.208-2.015c1.438-0.555,2.868-1.337,4.412-1.286c4.85,0.161,5.561,4.668,3.855,8.41
					c-0.889,1.951-2.034,3.286-3.638,4.604c-13.319,10.943-27.012,17.073-44.303,20.396c-17.291,3.323-35.715,4.572-53.44,2.191
					c18.533-2.133,36.768-8.503,54.041-14.821c7.549-2.761,14.035-5.746,20.668-9.21
					C382.684,214.21,386.545,211.365,391.605,208.697z"/>
			</g>
			<g>
				<path style="fill:#D83816;stroke:#4A1000;stroke-linecap:round;stroke-linejoin:round;stroke-miterlimit:10;" d="
					M404.598,230.817c3.582,1.868,7.247,8.649-13.626,20.639c-9.271,5.326-28.629,10.083-38.09,10.331
					c-7.23,0.19-32.133-2.018-40.103-9.707c13.832,5.242,38.649-0.835,50.684-5.604C378.584,240.486,396.2,226.436,404.598,230.817z
					"/>
			</g>
		</g>
		<g>
			<path style="fill:#A85789;stroke:#4A1000;stroke-miterlimit:10;" d="M197.58,240.208c-23.367-15.499-33.075-24.991-52.102-45.587
				c-19.028-20.596-34.121-45.535-39.491-73.056c-2.208-11.313-2.54-23.817,3.663-33.533c7.919-12.406,24.804-16.715,39.178-13.555
				c14.375,3.16,26.646,12.351,37.583,22.2c4.431,3.99,12.692,0.841,17.681-2.425c4.989-3.266,8.8-8.007,13.22-12.008
				c8.451-7.651,19.564-12.652,30.964-12.565c11.4,0.088,22.908,5.669,29.006,15.301c5.096,8.049,6.126,17.991,6.121,27.518
				c-0.02,41.511-43.398,129.281-60.746,139.175C216.458,255.208,203.527,244.153,197.58,240.208z"/>
			<path style="fill:#B83013;stroke:#4A1000;stroke-miterlimit:10;" d="M143.816,171.46c-11.961-16.574-20.889-35.565-24.275-55.721
				c-0.825-4.91-1.312-10.007-0.045-14.822c1.268-4.815,4.591-9.337,9.334-10.852c6.542-2.089,13.746,2.182,17.335,8.037
				c3.589,5.855,4.442,12.922,5.337,19.732c2.262,17.211,5.331,34.389,10.82,50.857c4.409,13.228,9.363,22.841,22.828,44.568
				c-6.86-5.323-20.196-17.267-25.437-22.74C153.791,184.336,148.827,178.404,143.816,171.46z"/>
			<path style="fill:#B83013;stroke:#4A1000;stroke-miterlimit:10;" d="M161.344,111.231c0.252-3.229,0.765-6.527,2.374-9.339
				c1.609-2.811,4.516-5.065,7.754-5.103c3.958-0.046,7.349,3.232,8.675,6.962c1.327,3.73-0.219,11.41-1.289,17.368
				c-1.775,9.88-1.87,14.26-1.585,24.294c0.357,12.547,1.514,32.517,2.436,37.346c-3.209-5.143-13.319-34.334-15.922-47.034
				C161.799,126.025,160.943,116.353,161.344,111.231z"/>
			<path style="fill:#B83013;stroke:#4A1000;stroke-miterlimit:10;" d="M187.955,170.322c-0.222-5.517-0.008-11.159,1.861-16.355
				c1.05-2.917,3.036-5.956,6.106-6.39c3.014-0.426,5.846,1.989,6.945,4.828c1.099,2.839,0.878,5.994,0.641,9.029
				c-0.697,8.927-1.394,17.854-2.091,26.781c-0.344,4.412-2.126,21.297-2.261,25.918
				C192.433,195.142,188.773,177.916,187.955,170.322z"/>
			<path style="fill:#B83013;stroke:#4A1000;stroke-miterlimit:10;" d="M210.813,122.46c-1.538-4.969-4.294-9.057-3.935-13.459
				c0.359-4.401,2.769-8.965,6.938-10.422c4.544-1.589,9.731,1.093,12.413,5.091c2.682,3.998,3.377,8.983,3.669,13.788
				c0.862,14.198-1.328,28.751-7.201,41.76c-1.439,3.188-7.217,15.914-10.174,20.246C216.011,141.14,213.374,130.734,210.813,122.46
				z"/>
			<path style="fill:#B83013;stroke:#4A1000;stroke-miterlimit:10;" d="M229.218,169.047c6.425-21.394,10.913-44.185,6.061-65.99
				c-0.604-2.716-1.356-5.438-1.334-8.221c0.022-2.783,0.944-5.712,3.121-7.446c3.81-3.037,9.65-1.164,13.233,2.138
				c4.417,4.07,6.911,9.926,7.766,15.872c0.855,5.946,0.187,12.012-0.946,17.911c-4.292,22.357-15.081,42.853-25.735,62.971
				c-5.727,10.814-23.107,29.405-26.275,32.492c-0.11,0.107,9.205-15.241,11.832-20.19
				C222.115,188.838,226.052,179.59,229.218,169.047z"/>
			<path style="fill:#B83013;stroke:#4A1000;stroke-miterlimit:10;" d="M248.736,178.35c0.747-2.19,1.497-4.508,3.202-6.072
				c1.706-1.564,4.718-1.97,6.204-0.196c1.246,1.488,0.902,3.701,0.412,5.579c-4.883,18.689-20.981,38.234-39.989,48.337
				c10.846-11.083,20.499-24.622,22.59-28.635C245.591,188.846,245.622,187.484,248.736,178.35z"/>
		</g>
		<g>
			<path style="fill:#914B76;stroke:#4A1000;stroke-miterlimit:10;" d="M241.269,214.901c-2.59-27.92-1.289-41.434,2.812-69.173
				c4.101-27.739,14.053-55.138,32.116-76.586c7.425-8.817,16.953-16.92,28.411-18.185c14.629-1.616,28.577,8.829,35.134,22.005
				c6.557,13.177,7.099,28.498,6.291,43.194c-0.327,5.954,7.307,10.411,12.981,12.248c5.673,1.836,11.755,1.83,17.645,2.762
				c11.26,1.781,22.127,7.298,29.21,16.23c7.083,8.932,9.957,21.396,6.283,32.187c-3.071,9.018-10.167,16.058-17.589,22.031
				c-32.338,26.027-127.901,47.311-146.49,40.008C241.432,239.013,241.928,222.007,241.269,214.901z"/>
			<path style="fill:#CA68A4;" d="M260.503,237.059c-5.801,0-8.669-0.648-10.053-1.192c-3.217-1.263-3.881-14.077-4.13-18.901
				c-0.093-1.79-0.173-3.336-0.295-4.654c-2.574-27.747-1.279-40.76,2.788-68.271c4.409-29.819,15.222-55.652,31.269-74.706
				c8.747-10.386,17.232-15.903,25.938-16.864c0.857-0.095,1.729-0.142,2.595-0.142c11.217,0,22.769,8.068,28.745,20.076
				c6.523,13.108,6.581,28.96,5.902,41.306c-0.44,7.978,8.122,13.631,15.587,16.046c4.14,1.34,8.349,1.775,12.421,2.196
				c2.012,0.208,3.912,0.404,5.798,0.703c10.949,1.732,20.732,7.144,26.841,14.846c6.551,8.261,8.776,19.496,5.667,28.623
				c-2.962,8.698-10.311,15.421-16.383,20.306C366.307,218.07,291.475,237.059,260.503,237.059z"/>
			<path style="fill:#D83816;stroke:#4A1000;stroke-miterlimit:10;" d="M261.076,129.904c5.402-19.712,14.59-38.579,28.162-53.861
				c3.306-3.723,6.969-7.3,11.514-9.334s10.151-2.283,14.306,0.461c5.731,3.784,6.924,12.073,4.617,18.541
				c-2.308,6.468-7.276,11.566-12.017,16.535c-11.983,12.559-23.435,25.726-32.816,40.331
				c-7.535,11.732-11.913,21.621-20.385,45.737c-0.159-8.681,0.776-26.559,1.75-34.075
				C257.306,145.75,258.812,138.163,261.076,129.904z"/>
			<path style="fill:#D83816;stroke:#4A1000;stroke-miterlimit:10;" d="M316.484,104.772c2.673-1.829,5.563-3.499,8.761-4.01
				c3.198-0.511,6.778,0.338,8.839,2.837c2.519,3.053,2.093,7.751,0.021,11.123c-2.072,3.373-9.023,6.988-14.334,9.893
				c-8.807,4.816-12.278,7.49-19.913,14.007c-9.547,8.149-24.372,21.578-27.554,25.327c1.992-5.726,18.381-31.912,26.638-41.907
				C305.25,114.408,312.244,107.674,316.484,104.772z"/>
			<path style="fill:#D83816;stroke:#4A1000;stroke-miterlimit:10;" d="M289.155,159.58c4.157-3.635,8.685-7.007,13.904-8.811
				c2.93-1.013,6.543-1.373,8.807,0.746c2.222,2.08,2.118,5.8,0.597,8.437c-1.521,2.637-4.117,4.444-6.629,6.163
				c-7.389,5.058-14.778,10.115-22.167,15.173c-3.652,2.5-17.918,11.706-21.602,14.499
				C272.637,178.638,283.754,164.98,289.155,159.58z"/>
			<path style="fill:#D83816;stroke:#4A1000;stroke-miterlimit:10;" d="M337.779,150.091c2.904-4.315,4.359-9.026,8.012-11.508
				c3.653-2.481,8.719-3.468,12.469-1.136c4.088,2.542,5.253,8.264,3.823,12.861c-1.43,4.597-4.876,8.265-8.435,11.507
				c-10.516,9.579-23.223,17.003-37.037,20.592c-3.385,0.879-16.921,4.364-22.149,4.779
				C326.494,165.858,332.943,157.276,337.779,150.091z"/>
			<path style="fill:#D83816;stroke:#4A1000;stroke-miterlimit:10;" d="M314.541,193.401c20.691-8.418,41.255-19.222,55.191-36.679
				c1.736-2.175,3.384-4.467,5.565-6.196c2.181-1.729,5.04-2.848,7.757-2.241c4.755,1.062,6.96,6.785,6.637,11.646
				c-0.398,5.993-3.394,11.609-7.488,16.005c-4.094,4.396-9.237,7.681-14.541,10.5c-20.102,10.684-42.832,15.14-65.182,19.465
				c-12.014,2.325-37.394,0.454-41.786-0.077c-0.152-0.018,17.644-2.394,23.146-3.453
				C294.673,200.286,304.345,197.55,314.541,193.401z"/>
			<path style="fill:#D83816;stroke:#4A1000;stroke-miterlimit:10;" d="M319.791,210.205c2.174-0.793,4.449-1.663,6.737-1.316
				c2.288,0.347,4.494,2.438,4.045,4.708c-0.377,1.904-2.316,3.024-4.086,3.821c-17.617,7.922-42.937,7.648-62.728-0.816
				c15.435,1.494,32.034,0.517,36.471-0.373C309.643,214.341,310.724,213.51,319.791,210.205z"/>
		</g>
		<g>
			<g>
				<path style="fill:#B59133;stroke:#4A1000;stroke-miterlimit:10;" d="M359.669,331.623c1.646,1.626,3.041,3.582,3.621,5.822
					c0.579,2.24,0.247,4.788-1.227,6.571c-1.572,1.901-4.246,2.676-6.688,2.329c-2.442-0.347-4.656-1.69-6.446-3.387
					c-1.79-1.697-3.205-3.744-4.593-5.782c-1.018-1.495-2.056-3.062-2.315-4.852c-0.299-2.068,0.58-3.889,1.959-5.363
					c1.315-1.406,2.339-1.352,4.23-1.061C352.498,326.559,356.579,328.572,359.669,331.623z"/>
				<path style="fill:#EFC043;" d="M354.626,345.389c-2.388-0.397-4.352-1.866-5.579-3.027c-1.749-1.659-3.167-3.741-4.417-5.577
					c-0.883-1.296-1.883-2.766-2.109-4.323c-0.216-1.481,0.334-2.936,1.632-4.324c0.864-0.923,1.329-0.951,3.118-0.676l0.239,0.038
					c3.974,0.662,7.713,2.556,10.528,5.336c1.721,1.698,2.827,3.461,3.287,5.241c0.518,2.006,0.144,4.097-0.979,5.454
					c-1.201,1.452-3.375,2.193-5.54,1.885L354.626,345.389z"/>
				<path style="fill:#A8872F;stroke:#4A1000;stroke-miterlimit:10;" d="M344.594,323.775c3.049,0.194,5.716,2.437,7.021,5.199
					c1.257,2.661,1.347,5.996-0.305,8.432c-2.011,2.964-6.411,3.884-9.557,2.171c-3.089-1.682-4.96-6.145-4.729-9.594
					C337.255,326.555,341.295,323.565,344.594,323.775z"/>
				<path style="fill:#EFC043;" d="M343.499,338.976c-0.655-0.109-1.267-0.317-1.82-0.617c-2.677-1.459-4.268-5.522-4.074-8.403
					c0.186-2.788,3.669-5.201,6.234-5.037c0.189,0.012,0.377,0.033,0.563,0.064c2.185,0.364,4.305,2.097,5.399,4.416
					c1.166,2.464,1.084,5.285-0.207,7.187C348.372,338.388,345.866,339.37,343.499,338.976z"/>
			</g>
			<path style="fill:#4A1000;stroke:#4A1000;stroke-miterlimit:10;" d="M343.142,336.353c-12.902-0.009-25.952-1.059-38.198-5.122
				c-12.246-4.063-23.712-11.358-31.045-21.974c-1.016-1.471,0.142-3.699,1.392-4.978c1.25-1.279,3.29-1.708,4.949-1.043
				l3.082,3.163c7.173,8.348,16.259,14.49,26.554,18.38c10.296,3.89,21.572,5.152,32.473,3.634c1.305-0.182,2.658,0.195,3.512,1.199
				c0.854,1.004,1.135,2.463,0.717,3.712C346.158,334.574,344.46,336.354,343.142,336.353z"/>
		</g>
		<g>
			<path style="fill:#4A1000;stroke:#4A1000;stroke-miterlimit:10;" d="M146.539,290.897c20.932,7.192,46.616,9.55,66.231-0.703
				c2.061-1.077,3.014-3.872,2.04-5.984c-0.973-2.112-3.902-2.403-6.094-1.626c-19.025,6.74-40.526,7.751-59.471,0.788
				C142.318,280.826,140.479,288.815,146.539,290.897z"/>
			<path style="fill:#A6852E;stroke:#4A1000;stroke-miterlimit:10;" d="M148.555,286.526c0.583-1.467,1.029-3.046,0.82-4.611
				c-0.359-2.692-2.776-4.888-5.467-5.256c-2.691-0.368-5.475,0.958-7.123,3.116c-1.649,2.158-2.211,5.039-1.794,7.723
				c0.32,2.063,1.244,4.103,2.885,5.392C142.69,296.671,146.946,290.577,148.555,286.526z"/>
			<path style="fill:#EFC043;" d="M143.102,290.078c1.2-1.285,2.413-3.158,3.245-5.009c0.757-1.688,1.063-2.919,0.993-3.991
				c-0.13-2.006-1.9-3.693-4.028-3.842c-1.882-0.134-4.014,0.815-5.562,2.473c-0.16,0.171-0.312,0.348-0.456,0.532
				c-1.468,1.872-2.187,4.353-1.974,6.806c0.169,1.94,0.904,3.498,2.067,4.389C138.028,291.927,139.98,293.422,143.102,290.078z"/>
			<path style="fill:#A6852E;stroke:#4A1000;stroke-miterlimit:10;" d="M141.535,285.049c1.838-3.336,1.421-7.777-1.007-10.713
				c-0.507-0.613-1.105-1.172-1.832-1.496c-0.727-0.324-1.598-0.387-2.309-0.032c-0.821,0.41-1.308,1.31-1.456,2.216
				c-0.148,0.906-0.007,1.831,0.133,2.738c-2.158-2.668-6.007-3.83-9.301-2.87c-3.295,0.961-5.746,4.519-5.074,7.884
				c0.393,1.967,1.709,3.64,3.241,4.934c2.732,2.308,6.375,3.64,9.923,3.197C137.402,290.466,139.809,288.181,141.535,285.049z"/>
			<path style="fill:#EFC043;" d="M138.474,286.276c0.646-0.691,1.246-1.553,1.785-2.56c1.473-2.752,1.017-6.569-1.084-9.077
				c-0.476-0.569-0.924-0.946-1.37-1.153c-0.433-0.202-0.897-0.234-1.21-0.085c-0.099,0.048-0.195,0.12-0.282,0.213
				c-0.224,0.24-0.386,0.614-0.443,1.026c-0.097,0.697,0.049,1.503,0.19,2.282c0.069,0.383-0.046,0.755-0.29,1.017
				c-0.108,0.115-0.24,0.209-0.393,0.273c-0.503,0.211-1.103,0.054-1.463-0.386c-1.825-2.225-5.124-3.313-7.847-2.586
				c-0.954,0.255-1.836,0.794-2.551,1.56c-1.219,1.306-1.738,3.024-1.384,4.594c0.402,1.787,1.776,3.259,2.858,4.177
				c2.596,2.203,5.893,3.345,8.82,3.055C135.641,288.445,137.166,287.677,138.474,286.276z"/>
		</g>
		<g>
			
				<ellipse transform="matrix(0.0924 -0.9957 0.9957 0.0924 -33.4013 528.7435)" style="fill:#B52F12;stroke:#4A1000;stroke-miterlimit:10;" cx="273.342" cy="282.694" rx="41.219" ry="49.413"/>
			<path style="fill:#D83816;" d="M273.475,313.444c-1.601,0-3.228-0.075-4.836-0.224c-23.555-2.187-41.249-19.799-39.443-39.261
				c1.67-17.989,19.364-31.556,41.159-31.556c1.601,0,3.228,0.076,4.837,0.225c23.555,2.186,41.249,19.798,39.443,39.261
				C312.964,299.879,295.269,313.444,273.475,313.444z"/>
			<path style="fill:#B52F12;" d="M298.03,308.175c0,1.192-0.966,2.158-2.158,2.158c-1.192,0-2.158-0.966-2.158-2.158
				c0-1.191,0.966-2.158,2.158-2.158C297.064,306.018,298.03,306.984,298.03,308.175z"/>
			<path style="fill:#B52F12;" d="M312.967,297.305c0,3.162-2.564,5.726-5.726,5.726c-3.162,0-5.726-2.564-5.726-5.726
				c0-3.162,2.564-5.726,5.726-5.726C310.404,291.578,312.967,294.142,312.967,297.305z"/>
			<path style="fill:#B52F12;" d="M316.951,275.812c0,1.466-1.189,2.655-2.655,2.655c-1.467,0-2.656-1.189-2.656-2.655
				c0-1.467,1.189-2.656,2.656-2.656C315.762,273.156,316.951,274.345,316.951,275.812z"/>
		</g>
		<g>
			
				<ellipse transform="matrix(0.7071 -0.7071 0.7071 0.7071 -125.2001 248.0111)" style="fill:#B52F12;stroke:#4A1000;stroke-miterlimit:10;" cx="236.776" cy="275.135" rx="37.562" ry="37.562"/>
			
				<ellipse transform="matrix(0.5646 -0.8254 0.8254 0.5646 -119.5302 312.4291)" style="fill:#D83816;" cx="236.342" cy="269.5" rx="31.902" ry="31.902"/>
			<path style="fill:#B52F12;" d="M251.227,298.3c0,3.162-2.564,5.726-5.726,5.726c-3.162,0-5.726-2.564-5.726-5.726
				c0-3.162,2.564-5.726,5.726-5.726C248.664,292.574,251.227,295.138,251.227,298.3z"/>
			<path style="fill:#B52F12;" d="M264.671,288.508c0,1.329-1.077,2.406-2.406,2.406s-2.406-1.078-2.406-2.406
				c0-1.329,1.077-2.407,2.406-2.407S264.671,287.179,264.671,288.508z"/>
			<path style="fill:#B52F12;" d="M269.816,270.003c0,2.2-1.783,3.983-3.983,3.983c-2.2,0-3.983-1.783-3.983-3.983
				c0-2.2,1.784-3.983,3.983-3.983C268.032,266.02,269.816,267.803,269.816,270.003z"/>
		</g>
		<g>
			<path style="fill:none;stroke:#4A1000;stroke-linecap:round;stroke-linejoin:round;stroke-miterlimit:10;" d="M228.473,168.409
				c4.904-9.257,9.028-19.024,11.024-29.308c1.996-10.284,1.784-21.146-1.784-30.996c-3.568-9.85-10.685-18.594-20.162-23.059"/>
			<path style="fill:#4A1000;" d="M202.999,91.213c1.537,2.457,5.741,6.847,14.857,7.597c1.283,0.105,2.59,0.078,3.837-0.243
				c1.246-0.32,2.439-0.99,3.183-2.041c1.198-1.692,1.007-4.067,0.068-5.916c-2.826-5.562-10.394-8.125-16.288-7.82
				C203.843,83.04,201.105,88.185,202.999,91.213z"/>
			<path style="fill:none;stroke:#4A1000;stroke-linecap:round;stroke-linejoin:round;stroke-miterlimit:10;" d="M188.884,164.736
				c0.8-10.445,0.681-21.047-1.595-31.272c-2.276-10.226-6.808-20.1-14.012-27.706c-7.204-7.606-17.22-12.781-27.692-13.091"/>
			<path style="fill:#4A1000;" d="M134.705,104.131c2.39,1.639,7.997,3.985,16.655,1.033c1.218-0.415,2.406-0.963,3.421-1.754
				c1.015-0.791,1.841-1.882,2.104-3.142c0.423-2.03-0.701-4.132-2.299-5.451c-4.812-3.971-12.773-3.299-18.055-0.666
				C132.216,96.301,131.76,102.111,134.705,104.131z"/>
			<path style="fill:#B52F12;stroke:#4A1000;stroke-miterlimit:10;" d="M259.125,220.019c0.4,36.54-14.786,63.427-64.396,64.396
				c-35.558,0.694-69.255-17.188-69.638-52.751c-0.498-46.305,28.38-76.179,69.638-76.04
				C230.294,155.743,258.736,184.457,259.125,220.019z"/>
			<path style="fill:#D83816;" d="M188.166,270.501c-16.046,0-30.816-4.129-41.589-11.628
				c-11.768-8.191-18.069-19.918-18.222-33.914c-0.224-20.545,6.056-37.783,18.16-49.85c10.972-10.938,25.917-16.72,43.219-16.72
				l0.254,0c15.153,0.05,29.377,5.894,40.053,16.455c10.655,10.539,16.614,24.608,16.781,39.617
				c0.417,37.466-17.655,55.267-56.871,56.021C189.356,270.495,188.76,270.501,188.166,270.501z"/>
			<ellipse style="fill:#D1D1D1;stroke:#4A1000;stroke-miterlimit:10;" cx="206.949" cy="204.282" rx="24.302" ry="25.134"/>
			<path style="fill:#FFFFFF;" d="M205.953,226.027c-12.012,0-21.784-10.145-21.784-22.617c0-12.471,9.772-22.617,21.784-22.617
				c12.012,0,21.784,10.146,21.784,22.617C227.737,215.882,217.965,226.027,205.953,226.027z"/>
			<path style="fill:#243D18;stroke:#4A1000;stroke-miterlimit:10;" d="M210.744,223.367c-10.044,0-18.215-8.483-18.215-18.911
				c0-10.427,8.171-18.911,18.215-18.911c10.044,0,18.215,8.484,18.215,18.911C228.959,214.883,220.788,223.367,210.744,223.367z"/>
			<path style="fill:#396126;" d="M210.745,222.717c-8.656,0-15.698-7.354-15.698-16.394c0-9.039,7.042-16.394,15.698-16.394
				c8.655,0,15.697,7.354,15.697,16.394C226.442,215.362,219.4,222.717,210.745,222.717z"/>
			<path style="fill:#4A1000;stroke:#4A1000;stroke-miterlimit:10;" d="M211.118,217.266c-6.851,0-12.426-5.821-12.426-12.976
				c0-7.155,5.574-12.976,12.426-12.976c6.851,0,12.425,5.821,12.425,12.976C223.543,211.445,217.969,217.266,211.118,217.266z"/>
			<path style="fill:#FFFFFF;stroke:#4A1000;stroke-miterlimit:10;" d="M208.261,205.991c-3.544,0-6.427-3.042-6.427-6.781
				c0-3.739,2.883-6.781,6.427-6.781c3.544,0,6.427,3.042,6.427,6.781C214.688,202.949,211.805,205.991,208.261,205.991z"/>
			<path style="fill:#FFFFFF;stroke:#4A1000;stroke-miterlimit:10;" d="M217.682,214.671c-1.472,0-2.67-1.263-2.67-2.817
				c0-1.553,1.198-2.817,2.67-2.817c1.472,0,2.67,1.264,2.67,2.817C220.352,213.408,219.154,214.671,217.682,214.671z"/>
			
				<ellipse transform="matrix(0.1933 -0.9811 0.9811 0.1933 -71.4262 320.1882)" style="fill:#D1D1D1;stroke:#4A1000;stroke-miterlimit:10;" cx="158.995" cy="203.529" rx="23.314" ry="16.305"/>
			<path style="fill:#FFFFFF;" d="M155.963,223.449c-0.607,0-1.217-0.06-1.811-0.177c-3.545-0.698-6.534-3.431-8.417-7.695
				c-2.022-4.579-2.508-10.28-1.371-16.054c2.07-10.512,9.057-18.438,16.251-18.438c0.608,0,1.217,0.059,1.812,0.176
				c3.545,0.699,6.534,3.431,8.417,7.695c2.021,4.579,2.508,10.28,1.371,16.053C170.145,215.522,163.158,223.449,155.963,223.449z"
				/>
			<path style="fill:#243D18;stroke:#4A1000;stroke-miterlimit:10;" d="M159.042,220.814c-6.029-1.507-9.096-10.085-6.837-19.124
				c2.258-9.039,9.001-15.167,15.029-13.661c6.029,1.506,9.096,10.086,6.837,19.125C171.812,216.192,165.07,222.32,159.042,220.814z
				"/>
			<path style="fill:#396126;" d="M160.319,219.769c-0.456,0-0.91-0.049-1.346-0.148c-2.236-0.502-4.061-2.27-5.139-4.98
				c-1.215-3.054-1.307-6.813-0.258-10.584c1.84-6.615,6.813-11.603,11.568-11.603c0.457,0,0.91,0.049,1.346,0.148
				c2.236,0.502,4.061,2.27,5.139,4.981c1.215,3.054,1.307,6.813,0.258,10.584C170.046,214.781,165.073,219.769,160.319,219.769z"/>
			<path style="fill:#4A1000;stroke:#4A1000;stroke-miterlimit:10;" d="M160.801,215.045c-3.91-0.977-5.892-6.569-4.418-12.465
				c1.473-5.896,5.852-9.898,9.762-8.921c3.909,0.977,5.891,6.569,4.418,12.465C169.089,212.02,164.71,216.022,160.801,215.045z"/>
			<path style="fill:#FFFFFF;stroke:#4A1000;stroke-miterlimit:10;" d="M161.492,205.347c-2.022-0.505-3.041-3.423-2.271-6.504
				s3.042-5.176,5.064-4.671c2.022,0.505,3.041,3.423,2.271,6.504S163.514,205.852,161.492,205.347z"/>
			<path style="fill:#FFFFFF;stroke:#4A1000;stroke-miterlimit:10;" d="M165.08,213.843c-0.84-0.21-1.263-1.422-0.943-2.702
				c0.32-1.28,1.264-2.15,2.104-1.94c0.84,0.21,1.263,1.422,0.943,2.702C166.864,213.183,165.921,214.053,165.08,213.843z"/>
			<path style="fill:#4A1000;stroke:#4A1000;stroke-miterlimit:10;" d="M197.831,234.146c-0.214,1.686-0.793,5.538-1.586,9.666
				c-0.793,4.078-1.787,8.42-2.819,11.189c-1.259,3.36-2.819,6.696-5.701,9.037c-1.246,1.019-2.744,1.737-4.329,2.026
				c-0.214,0.038-0.441,0.076-0.654,0.101c-7.652,0.868-9.377-7.74-11.743-13.203c-1.51-3.512-8.47-18.552-9.238-19.634
				c-0.088-0.126,0.038-0.264,0.176-0.201c11.126,4.795,23.649,4.279,35.165,0.428C197.491,233.429,197.881,233.743,197.831,234.146
				z"/>
			<path style="fill:#A65587;stroke:#4A1000;stroke-miterlimit:10;" d="M196.245,243.812c-0.793,4.078-1.787,8.42-2.819,11.189
				c-1.259,3.36-2.819,6.696-5.701,9.037c-1.246,1.019-2.744,1.737-4.329,2.026c-0.994-0.365-1.951-0.881-2.681-1.347
				c-1.825-1.183-3.298-2.958-3.839-5.059c-0.705-2.756,0.239-5.676,1.435-8.256c1.322-2.895,3.071-5.701,5.702-7.489
				C187.598,241.496,192.608,241.547,196.245,243.812z"/>
			<path style="fill:#CA68A4;" d="M182.866,262.508c-0.558,0.253-1.205,0.225-1.742-0.07c-0.297-0.163-0.543-0.313-0.716-0.423
				c-1.395-0.906-2.405-2.21-2.754-3.567c-0.428-1.672-0.021-3.76,1.281-6.569c1.438-3.151,2.972-5.202,4.832-6.466
				c1.329-0.895,2.963-1.371,4.718-1.371c0.423,0,0.845,0.029,1.262,0.086c1.105,0.15,1.844,1.228,1.603,2.317
				c-0.676,3.055-1.337,5.472-1.942,7.094c-1.106,2.953-2.469,5.964-4.93,7.963C183.977,261.912,183.434,262.25,182.866,262.508z"/>
			<path style="fill:#B52F12;" d="M236.848,225.214c2.682,3.25,1.359,8.771-2.956,12.332c-4.314,3.561-9.986,3.813-12.668,0.563
				c-2.682-3.25-1.359-8.771,2.955-12.332C228.494,222.217,234.166,221.965,236.848,225.214z"/>
			<path style="fill:#B52F12;" d="M141.807,230.582c-3.172,1.634-7.502-0.455-9.672-4.666c-2.17-4.211-1.357-8.949,1.815-10.584
				c3.172-1.634,7.502,0.455,9.672,4.666C145.792,224.21,144.979,228.948,141.807,230.582z"/>
			<path style="fill:#4A1000;stroke:#4A1000;stroke-miterlimit:10;" d="M158.888,168.046c3.223-1.487,6.782-2.121,10.324-2.353
				c2.473-0.162,5.461,0.15,6.604,2.349c0.913,1.757,0.108,4.026-1.377,5.336c-1.484,1.31-3.481,1.858-5.424,2.237
				c-2.604,0.508-5.248,0.781-7.896,0.928c-1.939,0.107-5.235,0.829-6.933-0.38C150.015,173.193,156.548,169.126,158.888,168.046z"
				/>
			<path style="fill:#4A1000;stroke:#4A1000;stroke-miterlimit:10;" d="M217.109,167.714c-3.223-1.486-6.782-2.121-10.324-2.353
				c-2.473-0.162-5.461,0.15-6.604,2.349c-0.913,1.756-0.108,4.026,1.377,5.336c1.485,1.31,3.481,1.858,5.424,2.237
				c2.604,0.508,5.248,0.781,7.896,0.928c1.939,0.107,5.235,0.829,6.933-0.38C225.982,172.861,219.449,168.794,217.109,167.714z"/>
			<path style="fill:#4A1000;stroke:#4A1000;stroke-miterlimit:10;" d="M152.506,182.789c-3.437,0.074-7.285-0.58-10.615-1.437
				c-0.797,5.181-0.281,10.558,1.487,15.493C144.295,191.426,147.975,185.901,152.506,182.789z"/>
			<path style="fill:#4A1000;stroke:#4A1000;stroke-miterlimit:10;" d="M220.629,182.443c4.224,0.091,8.953-0.713,13.044-1.766
				c0.98,6.367,0.345,12.976-1.827,19.04C230.72,193.057,226.198,186.268,220.629,182.443z"/>
		</g>
		<g>
			<path style="fill:#4A1000;stroke:#4A1000;stroke-miterlimit:10;" d="M303.466,219.922c-9.029,20.208-24.833,40.59-45.714,47.93
				c-2.194,0.771-4.887-0.44-5.767-2.593c-0.879-2.153,0.907-4.492,2.971-5.564c17.911-9.305,33.323-24.331,41.163-42.93
				C298.984,209.964,306.08,214.072,303.466,219.922z"/>
			<path style="fill:#A6852E;stroke:#4A1000;stroke-miterlimit:10;" d="M298.894,218.413c-1.47-0.575-2.929-1.327-3.93-2.547
				c-1.723-2.1-1.678-5.365-0.111-7.583c1.568-2.218,4.436-3.348,7.139-3.08c2.703,0.268,5.192,1.823,6.869,3.959
				c1.289,1.642,2.15,3.709,1.972,5.789C310.312,221.049,302.954,220.001,298.894,218.413z"/>
			<path style="fill:#EFC043;" d="M305.212,216.852c-1.759,0-3.955-0.391-5.876-1.047c-1.75-0.598-2.859-1.215-3.595-1.998
				c-1.377-1.464-1.403-3.909-0.06-5.566c1.187-1.467,3.335-2.378,5.604-2.378c0.234,0,0.467,0.01,0.7,0.03
				c2.371,0.204,4.674,1.372,6.322,3.202c1.302,1.448,1.94,3.048,1.797,4.506C310.027,214.404,309.787,216.852,305.212,216.852z"/>
			<path style="fill:#A6852E;stroke:#4A1000;stroke-miterlimit:10;" d="M302.606,212.274c-3.693-0.933-6.654-4.269-7.143-8.047
				c-0.102-0.789-0.103-1.608,0.156-2.36c0.259-0.752,0.807-1.432,1.553-1.71c0.86-0.321,1.85-0.062,2.613,0.448
				c0.763,0.51,1.343,1.245,1.911,1.966c-0.478-3.398,1.3-7.005,4.25-8.757c2.951-1.753,7.224-1.116,9.225,1.672
				c1.17,1.63,1.494,3.733,1.395,5.736c-0.178,3.572-1.69,7.143-4.436,9.435C309.386,212.95,306.073,213.15,302.606,212.274z"/>
			<path style="fill:#EFC043;" d="M305.592,210.874c-0.946,0-1.985-0.149-3.089-0.443c-3.017-0.801-5.495-3.74-5.895-6.987
				c-0.091-0.736-0.061-1.321,0.092-1.788c0.148-0.454,0.441-0.815,0.764-0.942c0.103-0.04,0.221-0.061,0.348-0.061
				c0.328,0,0.712,0.137,1.052,0.377c0.576,0.405,1.065,1.062,1.538,1.697c0.232,0.312,0.583,0.482,0.941,0.482
				c0.158,0,0.317-0.032,0.468-0.101c0.497-0.223,0.792-0.77,0.716-1.333c-0.381-2.853,1.076-6.007,3.465-7.5
				c0.837-0.524,1.834-0.8,2.881-0.8c1.787,0,3.396,0.794,4.303,2.124c1.032,1.514,1.17,3.522,1.102,4.94
				c-0.161,3.401-1.577,6.59-3.786,8.531C309.111,210.283,307.509,210.874,305.592,210.874z"/>
		</g>
		<g>
			<g>
				<path style="fill:#B59133;stroke:#4A1000;stroke-miterlimit:10;" d="M385.45,296.538c1.891,1.333,3.588,3.034,4.528,5.148
					c0.939,2.114,1.03,4.683-0.132,6.684c-1.239,2.133-3.749,3.337-6.214,3.395c-2.466,0.059-4.87-0.903-6.914-2.283
					c-2.044-1.38-3.776-3.166-5.48-4.949c-1.25-1.307-2.531-2.683-3.08-4.406c-0.635-1.991-0.066-3.932,1.052-5.612
					c1.066-1.602,2.086-1.717,3.998-1.741C377.545,292.72,381.901,294.035,385.45,296.538z"/>
				<path style="fill:#EFC043;" d="M382.736,310.945c-2.421,0-4.599-1.126-6-2.07c-1.997-1.35-3.738-3.17-5.273-4.776
					c-1.084-1.133-2.312-2.419-2.79-3.918c-0.456-1.426-0.152-2.951,0.9-4.533c0.701-1.052,1.155-1.156,2.965-1.179l0.242-0.001
					c4.029,0,8.028,1.255,11.261,3.535c1.976,1.393,3.357,2.95,4.103,4.63c0.841,1.894,0.815,4.018-0.07,5.541
					c-0.946,1.63-2.969,2.718-5.155,2.769L382.736,310.945z"/>
				<path style="fill:#A8872F;stroke:#4A1000;stroke-miterlimit:10;" d="M369.291,291.271c3.04-0.31,6.039,1.465,7.78,3.976
					c1.677,2.418,2.314,5.694,1.084,8.367c-1.497,3.254-5.686,4.884-9.07,3.711c-3.323-1.152-5.902-5.247-6.24-8.687
					C362.508,295.219,366.002,291.606,369.291,291.271z"/>
				<path style="fill:#EFC043;" d="M370.707,306.446c-0.664,0-1.302-0.105-1.896-0.31c-2.88-0.999-5.117-4.747-5.398-7.62
					c-0.274-2.78,2.766-5.732,5.322-5.992c0.188-0.02,0.377-0.029,0.565-0.029c2.215,0,4.591,1.362,6.051,3.47
					c1.555,2.239,1.937,5.036,0.976,7.124C375.417,305.065,373.106,306.446,370.707,306.446z"/>
			</g>
			<path style="fill:#4A1000;stroke:#4A1000;stroke-miterlimit:10;" d="M369.924,303.918c-12.729,2.109-25.774,3.217-38.521,1.22
				c-12.747-1.997-25.256-7.31-34.232-16.578c-1.244-1.284-0.467-3.673,0.555-5.139c1.023-1.466,2.965-2.226,4.711-1.842
				l3.559,2.614c8.446,7.057,18.417,11.624,29.212,13.77c10.795,2.147,22.125,1.54,32.629-1.747
				c1.257-0.394,2.654-0.244,3.661,0.606c1.007,0.85,1.524,2.243,1.316,3.544C372.607,301.668,371.224,303.703,369.924,303.918z"/>
		</g>
	</g>
	<g>
		<path style="fill:#4A1000;stroke:#4A1000;stroke-linecap:round;stroke-linejoin:round;stroke-miterlimit:10;" d="M251.912,499.63
			c-6.044-23.017-8.844-46.381-8.1-70.166h-6.786c-0.682,23.632,1.586,47.348,6.734,70.422L251.912,499.63z"/>
		
			<ellipse style="fill:#396126;stroke:#4A1000;stroke-linecap:round;stroke-linejoin:round;stroke-miterlimit:10;" cx="241.418" cy="427.915" rx="44.571" ry="12.564"/>
		<path style="fill:#B5B5B5;stroke:#4A1000;stroke-linecap:round;stroke-linejoin:round;stroke-miterlimit:10;" d="M241.343,427.653
			c2.052,7.083,7.594,7.901,12.338,7.742c4.744-0.159,11.209-1.978,13.219-8.597c8.049,3.867,15.073,5.964,23.836,4.245
			c1.893-0.372,5.941-1.688,7.48-2.853c1.539-1.164,2.629-3.092,2.318-4.996c8.218,2.187,17.369,2.242,25.672,0.406
			c2.811-0.622,5.633-1.501,7.949-3.212c2.316-1.711,4.071-4.382,4.075-7.261c5.925,1.326,12.451,0.087,17.744-2.888
			c2.852-1.603,5.423-3.823,7.033-6.672c1.61-2.848,2.178-6.364,1.12-9.46c-1.059-3.096-3.877-5.63-7.134-5.949
			c2.054-1.353,3.026-3.95,2.626-6.376s-1.945-4.556-3.872-6.084c-1.927-1.528-4.222-2.517-6.535-3.354
			c-10.182-3.687-21.311-4.725-31.999-2.983c0.671-1.025,0.313-3.218-0.333-4.259s-1.681-1.776-2.739-2.394
			c-7.618-4.454-17.885-3.857-24.935,1.449c-0.311-2.453-2.268-4.678-4.423-5.89c-7.908-4.448-16.919-2.373-23.653,3.166
			c-0.652-2.738-1.401-5.359-3.086-7.613c-1.685-2.254-4.27-3.974-7.083-4.045c-1.472-0.037-2.925,0.372-4.275,0.96
			c-2.057,0.898-3.942,2.24-5.327,4.006c-1.385,1.767-2.248,3.97-2.258,6.214c-1.235-2.32-2.726-4.708-4.337-6.785
			c-1.61-2.077-3.623-3.906-6.044-4.929c-3.116-1.317-6.775-1.185-9.869,0.183c-3.095,1.368-5.615,3.916-7.124,6.945
			c-0.831,1.668-1.342,3.748-0.364,5.334c-2.907-2.815-6.537-5.293-10.248-6.909c-3.711-1.615-7.88-2.324-11.856-1.57
			c-3.976,0.754-7.721,3.059-9.823,6.517c-1.143,1.879-1.755,4.351-0.635,6.244c-2.286-1.668-4.813-3.057-7.363-4.285
			c-2.046-0.985-4.185-1.828-6.429-2.174c-2.244-0.346-4.612-0.172-6.664,0.8c-2.052,0.972-3.749,2.803-4.273,5.012
			c-0.524,2.209,0.271,4.75,2.135,6.048c-6.173-1.557-12.525-1.758-18.818-0.799c-2.934,0.447-5.889,1.194-8.367,2.828
			c-1.856,1.224-3.383,2.896-4.605,4.743c-1.302,1.968-2.427,4.188-2.721,6.554c-0.217,1.748,0.106,3.533,0.829,5.133
			c0.326,0.722,1.166,2.264,1.173,2.157c0.007-0.108-1.046,0.751-2.084,0.998c-2.383,0.567-4.889,1.826-6.1,3.955
			c-1.149,2.019-0.869,4.576-0.018,6.737c2.122,5.388,7.442,9.056,13.072,10.41c5.63,1.354,11.555,0.689,17.216-0.53
			c-1.124,1.996-0.603,4.729,0.734,6.589c1.337,1.86,3.414,3.061,5.555,3.875c4.087,1.554,8.577,1.874,12.921,1.37
			c4.344-0.504,8.086-2.168,12.153-3.774c-1.55,2.555,1.99,9.78,5.786,11.918c4.302,2.423,9.686,2.663,13.056,2.135
			c3.37-0.528,6.609-1.702,9.72-3.099c2.077-0.933,4.999-3.701,6.11-5.732c0.012-0.021,0.039-0.014,0.038,0.01
			c-0.101,2.292,0.285,6.076,1.981,7.562c1.718,1.505,4.507,3.267,6.772,3.566c2.265,0.299,4.567,0.106,6.828-0.221
			c2.987-0.432,5.369-0.712,8.044-2.11C238.159,434.262,240.201,430.447,241.343,427.653z"/>
		<path style="fill:#FFFFFF;" d="M222.987,435.139c-0.753,0-1.444-0.043-2.114-0.131c-1.774-0.234-4.207-1.765-5.715-3.087
			c-0.831-0.728-1.415-3.405-1.301-5.97c0.024-0.547-0.183-1.097-0.562-1.491c-0.377-0.393-0.911-0.619-1.455-0.619
			c-0.718,0-1.4,0.397-1.755,1.02c-0.932,1.703-3.543,4.159-5.193,4.9c-3.511,1.576-6.438,2.513-9.21,2.948
			c-0.868,0.136-1.855,0.208-2.856,0.208c-1.928,0-5.65-0.274-8.909-2.11c-1.92-1.081-4.171-4.338-4.914-7.111
			c-0.341-1.272-0.214-1.905-0.143-2.026c0.435-0.735,0.36-1.676-0.195-2.325c-0.39-0.458-0.952-0.71-1.527-0.71
			c-0.243,0-0.487,0.045-0.723,0.138l-1.445,0.576c-3.415,1.366-6.641,2.657-10.204,3.071c-1.186,0.138-2.369,0.207-3.515,0.207
			c-3.069,0-5.918-0.491-8.465-1.46c-2.155-0.819-3.717-1.887-4.641-3.173c-0.997-1.386-1.261-3.294-0.616-4.439
			c0.386-0.686,0.335-1.534-0.132-2.168c-0.382-0.518-0.983-0.813-1.61-0.813c-0.14,0-0.281,0.015-0.421,0.045
			c-3.913,0.843-7.122,1.234-10.096,1.234c-2.251,0-4.29-0.227-6.232-0.693c-5.488-1.32-9.963-4.846-11.678-9.199
			c-0.364-0.923-1.102-3.262-0.104-5.015c0.773-1.36,2.532-2.453,4.825-2.999c1.006-0.239,1.891-0.79,2.366-1.086l0.102-0.063
			c0.501-0.24,0.885-0.683,1.049-1.226c0.184-0.609,0.065-1.266-0.31-1.77c-0.159-0.256-0.696-1.248-0.936-1.78
			c-0.601-1.329-0.831-2.733-0.666-4.061c0.212-1.709,0.999-3.573,2.404-5.698c1.179-1.782,2.538-3.186,4.038-4.176
			c1.865-1.229,4.199-2.007,7.568-2.521c2.431-0.371,4.872-0.559,7.257-0.559c3.673,0,7.297,0.444,10.77,1.32
			c0.164,0.041,0.328,0.061,0.49,0.061c0.768,0,1.489-0.444,1.819-1.171c0.401-0.879,0.116-1.919-0.677-2.471
			c-1.128-0.784-1.687-2.443-1.331-3.945c0.356-1.499,1.575-2.904,3.183-3.665c1.081-0.513,2.331-0.771,3.716-0.771
			c0.582,0,1.183,0.047,1.787,0.14c1.722,0.266,3.585,0.901,5.866,2c2.839,1.367,5.146,2.708,7.052,4.099
			c0.353,0.258,0.767,0.385,1.179,0.385c0.484,0,0.965-0.175,1.345-0.52c0.703-0.638,0.86-1.682,0.377-2.498
			c-0.7-1.185-0.102-2.996,0.623-4.188c1.713-2.818,4.886-4.909,8.487-5.592c0.933-0.177,1.908-0.267,2.898-0.267
			c2.531,0,5.224,0.59,7.787,1.706c3.434,1.494,6.863,3.807,9.655,6.511c0.386,0.374,0.888,0.564,1.392,0.564
			c0.442,0,0.885-0.146,1.253-0.441c0.786-0.632,0.979-1.75,0.449-2.608c-0.429-0.695-0.26-1.964,0.452-3.393
			c1.338-2.684,3.577-4.873,6.143-6.007c1.379-0.609,2.906-0.932,4.417-0.932c1.371,0,2.671,0.256,3.866,0.761
			c1.874,0.792,3.637,2.243,5.242,4.313c1.446,1.865,2.882,4.112,4.152,6.499c0.353,0.664,1.039,1.06,1.765,1.06
			c0.159,0,0.32-0.018,0.48-0.059c0.89-0.22,1.516-1.017,1.52-1.933c0.007-1.719,0.658-3.491,1.832-4.989
			c1.107-1.412,2.681-2.59,4.553-3.406c1.228-0.536,2.304-0.796,3.289-0.796l0.135,0.001c1.983,0.05,4.05,1.262,5.532,3.243
			c1.496,2.001,2.175,4.495,2.742,6.879c0.159,0.671,0.653,1.213,1.308,1.433c0.209,0.07,0.424,0.104,0.638,0.104
			c0.457,0,0.907-0.157,1.27-0.456c4.017-3.304,8.716-5.124,13.232-5.124c2.878,0,5.627,0.726,8.171,2.156
			c1.844,1.036,3.218,2.804,3.419,4.398c0.09,0.708,0.549,1.313,1.206,1.591c0.25,0.106,0.515,0.158,0.778,0.158
			c0.427,0,0.851-0.137,1.203-0.402c3.446-2.595,7.862-4.023,12.435-4.023c3.707,0,7.265,0.935,10.288,2.703
			c0.718,0.419,1.598,0.993,2.049,1.721c0.337,0.543,0.491,1.783,0.334,2.153c-0.434,0.664-0.423,1.5,0.01,2.164
			c0.37,0.569,1.007,0.89,1.674,0.89c0.111,0,0.225-0.009,0.336-0.027c3.244-0.528,6.571-0.797,9.889-0.797
			c7.252,0,14.353,1.241,21.108,3.688c1.944,0.703,4.175,1.615,5.973,3.04c1.738,1.378,2.854,3.098,3.141,4.842
			c0.287,1.74-0.417,3.501-1.753,4.382c-0.707,0.466-1.044,1.328-0.841,2.15c0.203,0.822,0.903,1.428,1.746,1.51
			c2.353,0.23,4.589,2.124,5.437,4.605c0.816,2.386,0.454,5.313-0.969,7.828c-1.293,2.29-3.462,4.334-6.271,5.913
			c-3.628,2.038-7.842,3.16-11.865,3.16c-1.534,0-3.036-0.162-4.463-0.481c-0.145-0.032-0.291-0.048-0.437-0.048
			c-0.449,0-0.891,0.151-1.249,0.438c-0.474,0.379-0.75,0.952-0.751,1.56c-0.003,2.003-1.254,4.17-3.265,5.656
			c-2.186,1.615-4.991,2.381-7.191,2.867c-3.791,0.839-7.723,1.264-11.686,1.264c-4.54,0-8.928-0.556-13.041-1.649
			c-0.17-0.045-0.343-0.067-0.515-0.067c-0.49,0-0.971,0.181-1.343,0.518c-0.503,0.456-0.74,1.135-0.631,1.805
			c0.191,1.172-0.642,2.391-1.551,3.079c-1.162,0.879-4.86,2.132-6.658,2.484c-1.953,0.384-3.812,0.569-5.682,0.569
			c-5.124,0-10.021-1.348-16.903-4.654c-0.273-0.132-0.569-0.197-0.866-0.197c-0.273,0-0.548,0.057-0.805,0.169
			c-0.534,0.234-0.939,0.691-1.109,1.25c-1.883,6.2-8.58,7.086-11.371,7.179c-0.305,0.011-0.611,0.017-0.921,0.017
			c-5.327,0-8.147-1.89-9.43-6.316c-0.237-0.817-0.965-1.396-1.815-1.44c-0.036-0.002-0.071-0.003-0.106-0.003
			c-0.809,0-1.542,0.488-1.851,1.243c-1.436,3.513-3.281,6.126-4.935,6.99c-2.218,1.159-4.18,1.44-6.894,1.83l-0.511,0.073
			C225.51,435.028,224.186,435.139,222.987,435.139C222.988,435.139,222.988,435.139,222.987,435.139z"/>
		
			<line style="fill:#EFC043;stroke:#4A1000;stroke-linecap:round;stroke-linejoin:round;stroke-miterlimit:10;" x1="241.549" y1="407.044" x2="241.549" y2="427.379"/>
		
			<line style="fill:#EFC043;stroke:#4A1000;stroke-linecap:round;stroke-linejoin:round;stroke-miterlimit:10;" x1="258.033" y1="406.385" x2="266.868" y2="426.692"/>
		
			<line style="fill:#EFC043;stroke:#4A1000;stroke-linecap:round;stroke-linejoin:round;stroke-miterlimit:10;" x1="275.044" y1="403.615" x2="300.758" y2="422.736"/>
		
			<line style="fill:#EFC043;stroke:#4A1000;stroke-linecap:round;stroke-linejoin:round;stroke-miterlimit:10;" x1="291" y1="397.945" x2="338.341" y2="412.714"/>
		
			<line style="fill:#EFC043;stroke:#4A1000;stroke-linecap:round;stroke-linejoin:round;stroke-miterlimit:10;" x1="296.407" y1="389.901" x2="356.407" y2="388.055"/>
		
			<line style="fill:#EFC043;stroke:#4A1000;stroke-linecap:round;stroke-linejoin:round;stroke-miterlimit:10;" x1="289.286" y1="383.571" x2="317.11" y2="368.934"/>
		
			<line style="fill:#EFC043;stroke:#4A1000;stroke-linecap:round;stroke-linejoin:round;stroke-miterlimit:10;" x1="274.516" y1="378.956" x2="289.945" y2="363.923"/>
		
			<line style="fill:#EFC043;stroke:#4A1000;stroke-linecap:round;stroke-linejoin:round;stroke-miterlimit:10;" x1="254.604" y1="376.451" x2="261.33" y2="361.418"/>
		
			<line style="fill:#EFC043;stroke:#4A1000;stroke-linecap:round;stroke-linejoin:round;stroke-miterlimit:10;" x1="240.231" y1="375.791" x2="239.176" y2="361.022"/>
		
			<line style="fill:#EFC043;stroke:#4A1000;stroke-linecap:round;stroke-linejoin:round;stroke-miterlimit:10;" x1="224.011" y1="376.319" x2="211.483" y2="362.077"/>
		
			<line style="fill:#EFC043;stroke:#4A1000;stroke-linecap:round;stroke-linejoin:round;stroke-miterlimit:10;" x1="227.044" y1="406.648" x2="211.747" y2="426.429"/>
		
			<line style="fill:#EFC043;stroke:#4A1000;stroke-linecap:round;stroke-linejoin:round;stroke-miterlimit:10;" x1="204.89" y1="403.088" x2="177.198" y2="421.813"/>
		
			<line style="fill:#EFC043;stroke:#4A1000;stroke-linecap:round;stroke-linejoin:round;stroke-miterlimit:10;" x1="204.758" y1="379.483" x2="179.176" y2="366.033"/>
		
			<line style="fill:#EFC043;stroke:#4A1000;stroke-linecap:round;stroke-linejoin:round;stroke-miterlimit:10;" x1="189.725" y1="385.418" x2="155.703" y2="371.308"/>
		
			<line style="fill:#EFC043;stroke:#4A1000;stroke-linecap:round;stroke-linejoin:round;stroke-miterlimit:10;" x1="189.989" y1="397.154" x2="145.418" y2="413.11"/>
		
			<line style="fill:#EFC043;stroke:#4A1000;stroke-linecap:round;stroke-linejoin:round;stroke-miterlimit:10;" x1="186.033" y1="391.352" x2="123.527" y2="391.747"/>
		
			<ellipse style="fill:#B39032;stroke:#4A1000;stroke-linecap:round;stroke-linejoin:round;stroke-miterlimit:10;" cx="241.154" cy="391.352" rx="55.121" ry="15.537"/>
		<ellipse style="fill:#EFC043;" cx="241.484" cy="388.572" rx="49.253" ry="11.944"/>
	</g>
	<g>
		<path style="fill:#4A1000;stroke:#4A1000;stroke-linecap:round;stroke-linejoin:round;stroke-miterlimit:10;" d="M65.135,499.919
			c-21.139-62.528-29.197-129.957-20.728-195.416h-6.03c-11.549,65.496-8.673,133.096,10.777,196.694L65.135,499.919z"/>
		
			<ellipse transform="matrix(0.7071 -0.7071 0.7071 0.7071 -188.2313 114.6463)" style="fill:#223B17;stroke:#4A1000;stroke-linecap:round;stroke-linejoin:round;stroke-miterlimit:10;" cx="44.275" cy="284.538" rx="20.967" ry="20.967"/>
		<path style="fill:#396126;" d="M43.978,301.923c-10.458,0-18.967-8.509-18.967-18.968c0-10.458,8.509-18.967,18.967-18.967
			s18.967,8.509,18.967,18.967C62.945,293.415,54.437,301.923,43.978,301.923z"/>
		<path style="fill:none;stroke:#4A1000;stroke-linecap:round;stroke-linejoin:round;stroke-miterlimit:10;" d="M47.539,264.132
			c5.092,10.261,10.034,20.054,15.126,30.315"/>
		<path style="fill:none;stroke:#4A1000;stroke-linecap:round;stroke-linejoin:round;stroke-miterlimit:10;" d="M34.582,266.407
			c5.968,12.659,11.627,24.777,17.595,37.436"/>
		<path style="fill:none;stroke:#4A1000;stroke-linecap:round;stroke-linejoin:round;stroke-miterlimit:10;" d="M25.614,275.134
			c3.477,9.913,7.462,19.647,11.934,29.153"/>
		<path style="fill:none;stroke:#4A1000;stroke-linecap:round;stroke-linejoin:round;stroke-miterlimit:10;" d="M23.389,286.738
			c10.814-7.81,23.798-11.903,36.533-15.874"/>
		<path style="fill:none;stroke:#4A1000;stroke-linecap:round;stroke-linejoin:round;stroke-miterlimit:10;" d="M27.246,296.231
			c12.428-5.061,24.996-9.776,37.686-14.137"/>
		<path style="fill:none;stroke:#4A1000;stroke-linecap:round;stroke-linejoin:round;stroke-miterlimit:10;" d="M37.507,303.581
			c8.777-3.313,17.435-6.939,25.952-10.871"/>
		<path style="fill:none;stroke:#4A1000;stroke-linecap:round;stroke-linejoin:round;stroke-miterlimit:10;" d="M27.606,272.334
			c7.509-3.771,15.731-6.114,24.099-6.867"/>
		<path style="fill:#B52F12;stroke:#000000;stroke-miterlimit:10;" d="M94.796,244.249c-2.91,15.764-23.617,25.259-46.358,21.208
			c-22.732-4.05-38.895-20.114-36.182-35.913l6.714,1.196c0.752,6.269,3.424,12.311,7.658,16.997
			c-1.657-5.008-2.468-10.607-2.272-16.037l16.943,3.018l-0.938,14.561l4.876-13.86l17.18,3.061l-0.889,13.768l4.61-13.105
			l17.563,3.129c-1.922,5.6-6.086,10.445-11.453,12.972c4.231,0.368,8.774-2.155,11.939-4.983c1.848-1.651,3.698-4.278,4.928-7.025
			L94.796,244.249z"/>
		<path style="fill:#D83816;" d="M58.876,264.787c-3.387,0-6.84-0.31-10.264-0.919c-21.637-3.854-37.292-18.859-35.517-33.763
			l4.978,0.887c0.901,6.27,3.658,12.215,7.811,16.811c0.195,0.216,0.467,0.33,0.743,0.33c0.172,0,0.346-0.044,0.503-0.136
			c0.409-0.238,0.595-0.73,0.446-1.178c-1.525-4.61-2.297-9.61-2.249-14.535l14.915,2.657l-0.881,13.669
			c-0.032,0.499,0.309,0.944,0.798,1.045c0.067,0.014,0.134,0.02,0.201,0.02c0.417,0,0.8-0.262,0.943-0.668l4.594-13.059
			l15.463,2.755l-0.831,12.876c-0.032,0.499,0.309,0.944,0.798,1.044c0.067,0.014,0.134,0.021,0.201,0.021
			c0.417,0,0.8-0.262,0.943-0.668l4.328-12.303l15.545,2.77c-2.008,4.934-5.873,9.104-10.521,11.293
			c-0.409,0.192-0.638,0.635-0.558,1.08c0.08,0.445,0.447,0.781,0.897,0.82c0.306,0.026,0.615,0.04,0.923,0.04
			c5.297,0,9.995-3.688,11.769-5.273c1.796-1.605,3.571-4.051,4.842-6.651l3.909,0.696
			C90.734,256.475,76.647,264.787,58.876,264.787z"/>
	</g>
</g>
</svg>
